<svg xmlns="http://www.w3.org/2000/svg" viewBox="0 0 41 41" shape-rendering="crispEdges"><rect width="100%" height="100%" fill="#fff"/><circle cx="12.5" cy="12.5" r="0.5" fill="#000000"/><circle cx="13.5" cy="12.5" r="0.5" fill="#000000"/><circle cx="14.5" cy="12.5" r="0.5" fill="#000000"/><circle cx="26.5" cy="12.5" r="0.5" fill="#000000"/><circle cx="27.5" cy="12.5" r="0.5" fill="#000000"/><circle cx="28.5" cy="12.5" r="0.5" fill="#000000"/><circle cx="12.5" cy="13.5" r="0.5" fill="#000000"/><circle cx="13.5" cy="13.5" r="0.5" fill="#000000"/><circle cx="14.5" cy="13.5" r="0.5" fill="#000000"/><circle cx="26.5" cy="13.5" r="0.5" fill="#000000"/><circle cx="27.5" cy="13.5" r="0.5" fill="#000000"/><circle cx="28.5" cy="13.5" r="0.5" fill="#000000"/><circle cx="12.5" cy="14.5" r="0.5" fill="#000000"/><circle cx="13.5" cy="14.5" r="0.5" fill="#000000"/><circle cx="14.5" cy="14.5" r="0.5" fill="#000000"/><circle cx="26.5" cy="14.5" r="0.5" fill="#000000"/><circle cx="27.5" cy="14.5" r="0.5" fill="#000000"/><circle cx="28.5" cy="14.5" r="0.5" fill="#000000"/><circle cx="12.5" cy="26.5" r="0.5" fill="#000000"/><circle cx="13.5" cy="26.5" r="0.5" fill="#000000"/><circle cx="14.5" cy="26.5" r="0.5" fill="#000000"/><circle cx="12.5" cy="27.5" r="0.5" fill="#000000"/><circle cx="13.5" cy="27.5" r="0.5" fill="#000000"/><circle cx="14.5" cy="27.5" r="0.5" fill="#000000"/><circle cx="12.5" cy="28.5" r="0.5" fill="#000000"/><circle cx="13.5" cy="28.5" r="0.5" fill="#000000"/><circle cx="14.5" cy="28.5" r="0.5" fill="#000000"/><circle cx="13.5" cy="13.5" r="3" stroke="#000000" stroke-width="1" fill="none"/><circle cx="27.5" cy="13.5" r="3" stroke="#000000" stroke-width="1" fill="none"/><circle cx="13.5" cy="27.5" r="3" stroke="#000000" stroke-width="1" fill="none"/><circle cx="13.5" cy="13.5" r="3" stroke="#000000" stroke-width="1" fill="none"/><circle cx="27.5" cy="13.5" r="3" stroke="#000000" stroke-width="1" fill="none"/><circle cx="13.5" cy="27.5" r="3" stroke="#000000" stroke-width="1" fill="none"/><circle cx="13.5" cy="13.5" r="3" stroke="#000000" stroke-width="1" fill="none"/><circle cx="27.5" cy="13.5" r="3" stroke="#000000" stroke-width="1" fill="none"/><circle cx="13.5" cy="27.5" r="3" stroke="#000000" stroke-width="1" fill="none"/><polygon points="18.5,10 19,10.5 18.5,11 18,10.5" fill="#000000"/><polygon points="20.5,10 21,10.5 20.5,11 20,10.5" fill="#000000"/><polygon points="21.5,10 22,10.5 21.5,11 21,10.5" fill="#000000"/><polygon points="22.5,10 23,10.5 22.5,11 22,10.5" fill="#000000"/><polygon points="21.5,11 22,11.5 21.5,12 21,11.5" fill="#000000"/><polygon points="22.5,11 23,11.5 22.5,12 22,11.5" fill="#000000"/><polygon points="19.5,12 20,12.5 19.5,13 19,12.5" fill="#000000"/><polygon points="21.5,12 22,12.5 21.5,13 21,12.5" fill="#000000"/><polygon points="18.5,13 19,13.5 18.5,14 18,13.5" fill="#000000"/><polygon points="19.5,13 20,13.5 19.5,14 19,13.5" fill="#000000"/><polygon points="20.5,13 21,13.5 20.5,14 20,13.5" fill="#000000"/><polygon points="21.5,13 22,13.5 21.5,14 21,13.5" fill="#000000"/><polygon points="19.5,14 20,14.5 19.5,15 19,14.5" fill="#000000"/><polygon points="20.5,14 21,14.5 20.5,15 20,14.5" fill="#000000"/><polygon points="21.5,14 22,14.5 21.5,15 21,14.5" fill="#000000"/><polygon points="19.5,15 20,15.5 19.5,16 19,15.5" fill="#000000"/><polygon points="20.5,15 21,15.5 20.5,16 20,15.5" fill="#000000"/><polygon points="22.5,15 23,15.5 22.5,16 22,15.5" fill="#000000"/><polygon points="18.5,16 19,16.5 18.5,17 18,16.5" fill="#000000"/><polygon points="20.5,16 21,16.5 20.5,17 20,16.5" fill="#000000"/><polygon points="22.5,16 23,16.5 22.5,17 22,16.5" fill="#000000"/><polygon points="20.5,17 21,17.5 20.5,18 20,17.5" fill="#000000"/><polygon points="12.5,18 13,18.5 12.5,19 12,18.5" fill="#000000"/><polygon points="14.5,18 15,18.5 14.5,19 14,18.5" fill="#000000"/><polygon points="15.5,18 16,18.5 15.5,19 15,18.5" fill="#000000"/><polygon points="16.5,18 17,18.5 16.5,19 16,18.5" fill="#000000"/><polygon points="18.5,18 19,18.5 18.5,19 18,18.5" fill="#000000"/><polygon points="19.5,18 20,18.5 19.5,19 19,18.5" fill="#000000"/><polygon points="23.5,18 24,18.5 23.5,19 23,18.5" fill="#000000"/><polygon points="27.5,18 28,18.5 27.5,19 27,18.5" fill="#000000"/><polygon points="30.5,18 31,18.5 30.5,19 30,18.5" fill="#000000"/><polygon points="11.5,19 12,19.5 11.5,20 11,19.5" fill="#000000"/><polygon points="12.5,19 13,19.5 12.5,20 12,19.5" fill="#000000"/><polygon points="13.5,19 14,19.5 13.5,20 13,19.5" fill="#000000"/><polygon points="14.5,19 15,19.5 14.5,20 14,19.5" fill="#000000"/><polygon points="18.5,19 19,19.5 18.5,20 18,19.5" fill="#000000"/><polygon points="20.5,19 21,19.5 20.5,20 20,19.5" fill="#000000"/><polygon points="22.5,19 23,19.5 22.5,20 22,19.5" fill="#000000"/><polygon points="24.5,19 25,19.5 24.5,20 24,19.5" fill="#000000"/><polygon points="27.5,19 28,19.5 27.5,20 27,19.5" fill="#000000"/><polygon points="29.5,19 30,19.5 29.5,20 29,19.5" fill="#000000"/><polygon points="30.5,19 31,19.5 30.5,20 30,19.5" fill="#000000"/><polygon points="11.5,20 12,20.5 11.5,21 11,20.5" fill="#000000"/><polygon points="12.5,20 13,20.5 12.5,21 12,20.5" fill="#000000"/><polygon points="15.5,20 16,20.5 15.5,21 15,20.5" fill="#000000"/><polygon points="16.5,20 17,20.5 16.5,21 16,20.5" fill="#000000"/><polygon points="17.5,20 18,20.5 17.5,21 17,20.5" fill="#000000"/><polygon points="18.5,20 19,20.5 18.5,21 18,20.5" fill="#000000"/><polygon points="19.5,20 20,20.5 19.5,21 19,20.5" fill="#000000"/><polygon points="21.5,20 22,20.5 21.5,21 21,20.5" fill="#000000"/><polygon points="23.5,20 24,20.5 23.5,21 23,20.5" fill="#000000"/><polygon points="26.5,20 27,20.5 26.5,21 26,20.5" fill="#000000"/><polygon points="27.5,20 28,20.5 27.5,21 27,20.5" fill="#000000"/><polygon points="28.5,20 29,20.5 28.5,21 28,20.5" fill="#000000"/><polygon points="29.5,20 30,20.5 29.5,21 29,20.5" fill="#000000"/><polygon points="30.5,20 31,20.5 30.5,21 30,20.5" fill="#000000"/><polygon points="10.5,21 11,21.5 10.5,22 10,21.5" fill="#000000"/><polygon points="11.5,21 12,21.5 11.5,22 11,21.5" fill="#000000"/><polygon points="15.5,21 16,21.5 15.5,22 15,21.5" fill="#000000"/><polygon points="17.5,21 18,21.5 17.5,22 17,21.5" fill="#000000"/><polygon points="18.5,21 19,21.5 18.5,22 18,21.5" fill="#000000"/><polygon points="22.5,21 23,21.5 22.5,22 22,21.5" fill="#000000"/><polygon points="24.5,21 25,21.5 24.5,22 24,21.5" fill="#000000"/><polygon points="29.5,21 30,21.5 29.5,22 29,21.5" fill="#000000"/><polygon points="11.5,22 12,22.5 11.5,23 11,22.5" fill="#000000"/><polygon points="14.5,22 15,22.5 14.5,23 14,22.5" fill="#000000"/><polygon points="16.5,22 17,22.5 16.5,23 16,22.5" fill="#000000"/><polygon points="19.5,22 20,22.5 19.5,23 19,22.5" fill="#000000"/><polygon points="20.5,22 21,22.5 20.5,23 20,22.5" fill="#000000"/><polygon points="21.5,22 22,22.5 21.5,23 21,22.5" fill="#000000"/><polygon points="24.5,22 25,22.5 24.5,23 24,22.5" fill="#000000"/><polygon points="26.5,22 27,22.5 26.5,23 26,22.5" fill="#000000"/><polygon points="27.5,22 28,22.5 27.5,23 27,22.5" fill="#000000"/><polygon points="18.5,23 19,23.5 18.5,24 18,23.5" fill="#000000"/><polygon points="19.5,23 20,23.5 19.5,24 19,23.5" fill="#000000"/><polygon points="22.5,23 23,23.5 22.5,24 22,23.5" fill="#000000"/><polygon points="23.5,23 24,23.5 23.5,24 23,23.5" fill="#000000"/><polygon points="25.5,23 26,23.5 25.5,24 25,23.5" fill="#000000"/><polygon points="27.5,23 28,23.5 27.5,24 27,23.5" fill="#000000"/><polygon points="29.5,23 30,23.5 29.5,24 29,23.5" fill="#000000"/><polygon points="30.5,23 31,23.5 30.5,24 30,23.5" fill="#000000"/><polygon points="21.5,24 22,24.5 21.5,25 21,24.5" fill="#000000"/><polygon points="23.5,24 24,24.5 23.5,25 23,24.5" fill="#000000"/><polygon points="24.5,24 25,24.5 24.5,25 24,24.5" fill="#000000"/><polygon points="25.5,24 26,24.5 25.5,25 25,24.5" fill="#000000"/><polygon points="29.5,24 30,24.5 29.5,25 29,24.5" fill="#000000"/><polygon points="30.5,24 31,24.5 30.5,25 30,24.5" fill="#000000"/><polygon points="18.5,25 19,25.5 18.5,26 18,25.5" fill="#000000"/><polygon points="20.5,25 21,25.5 20.5,26 20,25.5" fill="#000000"/><polygon points="24.5,25 25,25.5 24.5,26 24,25.5" fill="#000000"/><polygon points="25.5,25 26,25.5 25.5,26 25,25.5" fill="#000000"/><polygon points="26.5,25 27,25.5 26.5,26 26,25.5" fill="#000000"/><polygon points="18.5,26 19,26.5 18.5,27 18,26.5" fill="#000000"/><polygon points="20.5,26 21,26.5 20.5,27 20,26.5" fill="#000000"/><polygon points="23.5,26 24,26.5 23.5,27 23,26.5" fill="#000000"/><polygon points="25.5,26 26,26.5 25.5,27 25,26.5" fill="#000000"/><polygon points="27.5,26 28,26.5 27.5,27 27,26.5" fill="#000000"/><polygon points="29.5,26 30,26.5 29.5,27 29,26.5" fill="#000000"/><polygon points="30.5,26 31,26.5 30.5,27 30,26.5" fill="#000000"/><polygon points="24.5,27 25,27.5 24.5,28 24,27.5" fill="#000000"/><polygon points="25.5,27 26,27.5 25.5,28 25,27.5" fill="#000000"/><polygon points="29.5,27 30,27.5 29.5,28 29,27.5" fill="#000000"/><polygon points="18.5,28 19,28.5 18.5,29 18,28.5" fill="#000000"/><polygon points="19.5,28 20,28.5 19.5,29 19,28.5" fill="#000000"/><polygon points="21.5,28 22,28.5 21.5,29 21,28.5" fill="#000000"/><polygon points="23.5,28 24,28.5 23.5,29 23,28.5" fill="#000000"/><polygon points="24.5,28 25,28.5 24.5,29 24,28.5" fill="#000000"/><polygon points="26.5,28 27,28.5 26.5,29 26,28.5" fill="#000000"/><polygon points="27.5,28 28,28.5 27.5,29 27,28.5" fill="#000000"/><polygon points="28.5,28 29,28.5 28.5,29 28,28.5" fill="#000000"/><polygon points="30.5,28 31,28.5 30.5,29 30,28.5" fill="#000000"/><polygon points="20.5,29 21,29.5 20.5,30 20,29.5" fill="#000000"/><polygon points="21.5,29 22,29.5 21.5,30 21,29.5" fill="#000000"/><polygon points="22.5,29 23,29.5 22.5,30 22,29.5" fill="#000000"/><polygon points="25.5,29 26,29.5 25.5,30 25,29.5" fill="#000000"/><polygon points="29.5,29 30,29.5 29.5,30 29,29.5" fill="#000000"/><polygon points="19.5,30 20,30.5 19.5,31 19,30.5" fill="#000000"/><polygon points="21.5,30 22,30.5 21.5,31 21,30.5" fill="#000000"/><polygon points="22.5,30 23,30.5 22.5,31 22,30.5" fill="#000000"/><polygon points="24.5,30 25,30.5 24.5,31 24,30.5" fill="#000000"/><polygon points="25.5,30 26,30.5 25.5,31 25,30.5" fill="#000000"/><polygon points="26.5,30 27,30.5 26.5,31 26,30.5" fill="#000000"/><polygon points="27.5,30 28,30.5 27.5,31 27,30.5" fill="#000000"/><polygon points="29.5,30 30,30.5 29.5,31 29,30.5" fill="#000000"/><polygon points="30.5,30 31,30.5 30.5,31 30,30.5" fill="#000000"/></svg>
