<svg xmlns="http://www.w3.org/2000/svg" viewBox="0 0 27 27" shape-rendering="crispEdges"><rect width="100%" height="100%" fill="#fff"/><circle cx="5.5" cy="5.5" r="0.5" fill="#000000"/><circle cx="6.5" cy="5.5" r="0.5" fill="#000000"/><circle cx="7.5" cy="5.5" r="0.5" fill="#000000"/><circle cx="19.5" cy="5.5" r="0.5" fill="#000000"/><circle cx="20.5" cy="5.5" r="0.5" fill="#000000"/><circle cx="21.5" cy="5.5" r="0.5" fill="#000000"/><circle cx="5.5" cy="6.5" r="0.5" fill="#000000"/><circle cx="6.5" cy="6.5" r="0.5" fill="#000000"/><circle cx="7.5" cy="6.5" r="0.5" fill="#000000"/><circle cx="19.5" cy="6.5" r="0.5" fill="#000000"/><circle cx="20.5" cy="6.5" r="0.5" fill="#000000"/><circle cx="21.5" cy="6.5" r="0.5" fill="#000000"/><circle cx="5.5" cy="7.5" r="0.5" fill="#000000"/><circle cx="6.5" cy="7.5" r="0.5" fill="#000000"/><circle cx="7.5" cy="7.5" r="0.5" fill="#000000"/><circle cx="19.5" cy="7.5" r="0.5" fill="#000000"/><circle cx="20.5" cy="7.5" r="0.5" fill="#000000"/><circle cx="21.5" cy="7.5" r="0.5" fill="#000000"/><circle cx="5.5" cy="19.5" r="0.5" fill="#000000"/><circle cx="6.5" cy="19.5" r="0.5" fill="#000000"/><circle cx="7.5" cy="19.5" r="0.5" fill="#000000"/><circle cx="5.5" cy="20.5" r="0.5" fill="#000000"/><circle cx="6.5" cy="20.5" r="0.5" fill="#000000"/><circle cx="7.5" cy="20.5" r="0.5" fill="#000000"/><circle cx="5.5" cy="21.5" r="0.5" fill="#000000"/><circle cx="6.5" cy="21.5" r="0.5" fill="#000000"/><circle cx="7.5" cy="21.5" r="0.5" fill="#000000"/><rect x="11" y="3" width="1" height="1" fill="#000000"/><rect x="15" y="3" width="1" height="1" fill="#000000"/><rect x="12" y="4" width="1" height="1" fill="#000000"/><rect x="13" y="4" width="1" height="1" fill="#000000"/><rect x="14" y="4" width="1" height="1" fill="#000000"/><rect x="15" y="4" width="1" height="1" fill="#000000"/><rect x="11" y="5" width="1" height="1" fill="#000000"/><rect x="12" y="5" width="1" height="1" fill="#000000"/><rect x="14" y="5" width="1" height="1" fill="#000000"/><rect x="15" y="5" width="1" height="1" fill="#000000"/><rect x="13" y="6" width="1" height="1" fill="#000000"/><rect x="14" y="6" width="1" height="1" fill="#000000"/><rect x="11" y="7" width="1" height="1" fill="#000000"/><rect x="12" y="7" width="1" height="1" fill="#000000"/><rect x="14" y="7" width="1" height="1" fill="#000000"/><rect x="12" y="8" width="1" height="1" fill="#000000"/><rect x="15" y="8" width="1" height="1" fill="#000000"/><rect x="11" y="9" width="1" height="1" fill="#000000"/><rect x="13" y="9" width="1" height="1" fill="#000000"/><rect x="15" y="9" width="1" height="1" fill="#000000"/><rect x="11" y="10" width="1" height="1" fill="#000000"/><rect x="12" y="10" width="1" height="1" fill="#000000"/><rect x="13" y="10" width="1" height="1" fill="#000000"/><rect x="15" y="10" width="1" height="1" fill="#000000"/><rect x="8" y="11" width="1" height="1" fill="#000000"/><rect x="9" y="11" width="1" height="1" fill="#000000"/><rect x="15" y="11" width="1" height="1" fill="#000000"/><rect x="17" y="11" width="1" height="1" fill="#000000"/><rect x="19" y="11" width="1" height="1" fill="#000000"/><rect x="21" y="11" width="1" height="1" fill="#000000"/><rect x="23" y="11" width="1" height="1" fill="#000000"/><rect x="3" y="12" width="1" height="1" fill="#000000"/><rect x="4" y="12" width="1" height="1" fill="#000000"/><rect x="5" y="12" width="1" height="1" fill="#000000"/><rect x="6" y="12" width="1" height="1" fill="#000000"/><rect x="11" y="12" width="1" height="1" fill="#000000"/><rect x="12" y="12" width="1" height="1" fill="#000000"/><rect x="13" y="12" width="1" height="1" fill="#000000"/><rect x="14" y="12" width="1" height="1" fill="#000000"/><rect x="16" y="12" width="1" height="1" fill="#000000"/><rect x="17" y="12" width="1" height="1" fill="#000000"/><rect x="19" y="12" width="1" height="1" fill="#000000"/><rect x="20" y="12" width="1" height="1" fill="#000000"/><rect x="21" y="12" width="1" height="1" fill="#000000"/><rect x="5" y="13" width="1" height="1" fill="#000000"/><rect x="6" y="13" width="1" height="1" fill="#000000"/><rect x="7" y="13" width="1" height="1" fill="#000000"/><rect x="9" y="13" width="1" height="1" fill="#000000"/><rect x="11" y="13" width="1" height="1" fill="#000000"/><rect x="12" y="13" width="1" height="1" fill="#000000"/><rect x="14" y="13" width="1" height="1" fill="#000000"/><rect x="15" y="13" width="1" height="1" fill="#000000"/><rect x="16" y="13" width="1" height="1" fill="#000000"/><rect x="19" y="13" width="1" height="1" fill="#000000"/><rect x="20" y="13" width="1" height="1" fill="#000000"/><rect x="21" y="13" width="1" height="1" fill="#000000"/><rect x="22" y="13" width="1" height="1" fill="#000000"/><rect x="6" y="14" width="1" height="1" fill="#000000"/><rect x="8" y="14" width="1" height="1" fill="#000000"/><rect x="14" y="14" width="1" height="1" fill="#000000"/><rect x="19" y="14" width="1" height="1" fill="#000000"/><rect x="20" y="14" width="1" height="1" fill="#000000"/><rect x="21" y="14" width="1" height="1" fill="#000000"/><rect x="5" y="15" width="1" height="1" fill="#000000"/><rect x="9" y="15" width="1" height="1" fill="#000000"/><rect x="11" y="15" width="1" height="1" fill="#000000"/><rect x="13" y="15" width="1" height="1" fill="#000000"/><rect x="14" y="15" width="1" height="1" fill="#000000"/><rect x="16" y="15" width="1" height="1" fill="#000000"/><rect x="17" y="15" width="1" height="1" fill="#000000"/><rect x="23" y="15" width="1" height="1" fill="#000000"/><rect x="11" y="16" width="1" height="1" fill="#000000"/><rect x="13" y="16" width="1" height="1" fill="#000000"/><rect x="17" y="16" width="1" height="1" fill="#000000"/><rect x="18" y="16" width="1" height="1" fill="#000000"/><rect x="21" y="16" width="1" height="1" fill="#000000"/><rect x="22" y="16" width="1" height="1" fill="#000000"/><rect x="13" y="17" width="1" height="1" fill="#000000"/><rect x="17" y="17" width="1" height="1" fill="#000000"/><rect x="18" y="17" width="1" height="1" fill="#000000"/><rect x="20" y="17" width="1" height="1" fill="#000000"/><rect x="22" y="17" width="1" height="1" fill="#000000"/><rect x="11" y="18" width="1" height="1" fill="#000000"/><rect x="12" y="18" width="1" height="1" fill="#000000"/><rect x="14" y="18" width="1" height="1" fill="#000000"/><rect x="15" y="18" width="1" height="1" fill="#000000"/><rect x="16" y="18" width="1" height="1" fill="#000000"/><rect x="18" y="18" width="1" height="1" fill="#000000"/><rect x="19" y="18" width="1" height="1" fill="#000000"/><rect x="20" y="18" width="1" height="1" fill="#000000"/><rect x="21" y="18" width="1" height="1" fill="#000000"/><rect x="23" y="18" width="1" height="1" fill="#000000"/><rect x="13" y="19" width="1" height="1" fill="#000000"/><rect x="16" y="19" width="1" height="1" fill="#000000"/><rect x="18" y="19" width="1" height="1" fill="#000000"/><rect x="20" y="19" width="1" height="1" fill="#000000"/><rect x="22" y="19" width="1" height="1" fill="#000000"/><rect x="12" y="20" width="1" height="1" fill="#000000"/><rect x="13" y="20" width="1" height="1" fill="#000000"/><rect x="14" y="20" width="1" height="1" fill="#000000"/><rect x="16" y="20" width="1" height="1" fill="#000000"/><rect x="17" y="20" width="1" height="1" fill="#000000"/><rect x="20" y="20" width="1" height="1" fill="#000000"/><rect x="21" y="20" width="1" height="1" fill="#000000"/><rect x="12" y="21" width="1" height="1" fill="#000000"/><rect x="15" y="21" width="1" height="1" fill="#000000"/><rect x="16" y="21" width="1" height="1" fill="#000000"/><rect x="20" y="21" width="1" height="1" fill="#000000"/><rect x="21" y="21" width="1" height="1" fill="#000000"/><rect x="22" y="21" width="1" height="1" fill="#000000"/><rect x="23" y="21" width="1" height="1" fill="#000000"/><rect x="12" y="22" width="1" height="1" fill="#000000"/><rect x="13" y="22" width="1" height="1" fill="#000000"/><rect x="15" y="22" width="1" height="1" fill="#000000"/><rect x="16" y="22" width="1" height="1" fill="#000000"/><rect x="17" y="22" width="1" height="1" fill="#000000"/><rect x="19" y="22" width="1" height="1" fill="#000000"/><rect x="21" y="22" width="1" height="1" fill="#000000"/><rect x="12" y="23" width="1" height="1" fill="#000000"/><rect x="14" y="23" width="1" height="1" fill="#000000"/><rect x="15" y="23" width="1" height="1" fill="#000000"/><rect x="17" y="23" width="1" height="1" fill="#000000"/><rect x="19" y="23" width="1" height="1" fill="#000000"/><rect x="21" y="23" width="1" height="1" fill="#000000"/><rect x="22" y="23" width="1" height="1" fill="#000000"/><path d="M3.5 3H4L4 3V4L4 4H3L3 4V3.5A0.5 0.5 0 0 1 3.5 3ZM4 3H5L5 3V4L5 4H4L4 4V3L4 3ZM5 3H6L6 3V4L6 4H5L5 4V3L5 3ZM6 3H7L7 3V4L7 4H6L6 4V3L6 3ZM7 3H8L8 3V4L8 4H7L7 4V3L7 3ZM8 3H9L9 3V4L9 4H8L8 4V3L8 3ZM9 3H9.5A0.5 0.5 0 0 1 10 3.5V4L10 4H9L9 4V3L9 3ZM17.5 3H18L18 3V4L18 4H17L17 4V3.5A0.5 0.5 0 0 1 17.5 3ZM18 3H19L19 3V4L19 4H18L18 4V3L18 3ZM19 3H20L20 3V4L20 4H19L19 4V3L19 3ZM20 3H21L21 3V4L21 4H20L20 4V3L20 3ZM21 3H22L22 3V4L22 4H21L21 4V3L21 3ZM22 3H23L23 3V4L23 4H22L22 4V3L22 3ZM23 3H23.5A0.5 0.5 0 0 1 24 3.5V4L24 4H23L23 4V3L23 3ZM3 4H4L4 4V5L4 5H3L3 5V4L3 4ZM9 4H10L10 4V5L10 5H9L9 5V4L9 4ZM17 4H18L18 4V5L18 5H17L17 5V4L17 4ZM23 4H24L24 4V5L24 5H23L23 5V4L23 4ZM3 5H4L4 5V6L4 6H3L3 6V5L3 5ZM9 5H10L10 5V6L10 6H9L9 6V5L9 5ZM17 5H18L18 5V6L18 6H17L17 6V5L17 5ZM23 5H24L24 5V6L24 6H23L23 6V5L23 5ZM3 6H4L4 6V7L4 7H3L3 7V6L3 6ZM9 6H10L10 6V7L10 7H9L9 7V6L9 6ZM17 6H18L18 6V7L18 7H17L17 7V6L17 6ZM23 6H24L24 6V7L24 7H23L23 7V6L23 6ZM3 7H4L4 7V8L4 8H3L3 8V7L3 7ZM9 7H10L10 7V8L10 8H9L9 8V7L9 7ZM17 7H18L18 7V8L18 8H17L17 8V7L17 7ZM23 7H24L24 7V8L24 8H23L23 8V7L23 7ZM3 8H4L4 8V9L4 9H3L3 9V8L3 8ZM9 8H10L10 8V9L10 9H9L9 9V8L9 8ZM17 8H18L18 8V9L18 9H17L17 9V8L17 8ZM23 8H24L24 8V9L24 9H23L23 9V8L23 8ZM3 9H4L4 9V10L4 10H3.5A0.5 0.5 0 0 1 3 9.5V9L3 9ZM4 9H5L5 9V10L5 10H4L4 10V9L4 9ZM5 9H6L6 9V10L6 10H5L5 10V9L5 9ZM6 9H7L7 9V10L7 10H6L6 10V9L6 9ZM7 9H8L8 9V10L8 10H7L7 10V9L7 9ZM8 9H9L9 9V10L9 10H8L8 10V9L8 9ZM9 9H10L10 9V9.5A0.5 0.5 0 0 1 9.5 10H9L9 10V9L9 9ZM17 9H18L18 9V10L18 10H17.5A0.5 0.5 0 0 1 17 9.5V9L17 9ZM18 9H19L19 9V10L19 10H18L18 10V9L18 9ZM19 9H20L20 9V10L20 10H19L19 10V9L19 9ZM20 9H21L21 9V10L21 10H20L20 10V9L20 9ZM21 9H22L22 9V10L22 10H21L21 10V9L21 9ZM22 9H23L23 9V10L23 10H22L22 10V9L22 9ZM23 9H24L24 9V9.5A0.5 0.5 0 0 1 23.5 10H23L23 10V9L23 9ZM3.5 17H4L4 17V18L4 18H3L3 18V17.5A0.5 0.5 0 0 1 3.5 17ZM4 17H5L5 17V18L5 18H4L4 18V17L4 17ZM5 17H6L6 17V18L6 18H5L5 18V17L5 17ZM6 17H7L7 17V18L7 18H6L6 18V17L6 17ZM7 17H8L8 17V18L8 18H7L7 18V17L7 17ZM8 17H9L9 17V18L9 18H8L8 18V17L8 17ZM9 17H9.5A0.5 0.5 0 0 1 10 17.5V18L10 18H9L9 18V17L9 17ZM3 18H4L4 18V19L4 19H3L3 19V18L3 18ZM9 18H10L10 18V19L10 19H9L9 19V18L9 18ZM3 19H4L4 19V20L4 20H3L3 20V19L3 19ZM9 19H10L10 19V20L10 20H9L9 20V19L9 19ZM3 20H4L4 20V21L4 21H3L3 21V20L3 20ZM9 20H10L10 20V21L10 21H9L9 21V20L9 20ZM3 21H4L4 21V22L4 22H3L3 22V21L3 21ZM9 21H10L10 21V22L10 22H9L9 22V21L9 21ZM3 22H4L4 22V23L4 23H3L3 23V22L3 22ZM9 22H10L10 22V23L10 23H9L9 23V22L9 22ZM3 23H4L4 23V24L4 24H3.5A0.5 0.5 0 0 1 3 23.5V23L3 23ZM4 23H5L5 23V24L5 24H4L4 24V23L4 23ZM5 23H6L6 23V24L6 24H5L5 24V23L5 23ZM6 23H7L7 23V24L7 24H6L6 24V23L6 23ZM7 23H8L8 23V24L8 24H7L7 24V23L7 23ZM8 23H9L9 23V24L9 24H8L8 24V23L8 23ZM9 23H10L10 23V23.5A0.5 0.5 0 0 1 9.5 24H9L9 24V23L9 23Z" fill="#000000"/></svg>
