<svg xmlns="http://www.w3.org/2000/svg" viewBox="0 0 27 27" shape-rendering="crispEdges"><rect width="100%" height="100%" fill="#fff"/><polygon points="11.5,3 11,4 12,4" fill="#000000"/><polygon points="15.5,3 15,4 16,4" fill="#000000"/><polygon points="12.5,4 12,5 13,5" fill="#000000"/><polygon points="13.5,4 13,5 14,5" fill="#000000"/><polygon points="14.5,4 14,5 15,5" fill="#000000"/><polygon points="15.5,4 15,5 16,5" fill="#000000"/><polygon points="11.5,5 11,6 12,6" fill="#000000"/><polygon points="12.5,5 12,6 13,6" fill="#000000"/><polygon points="14.5,5 14,6 15,6" fill="#000000"/><polygon points="15.5,5 15,6 16,6" fill="#000000"/><polygon points="13.5,6 13,7 14,7" fill="#000000"/><polygon points="14.5,6 14,7 15,7" fill="#000000"/><polygon points="11.5,7 11,8 12,8" fill="#000000"/><polygon points="12.5,7 12,8 13,8" fill="#000000"/><polygon points="14.5,7 14,8 15,8" fill="#000000"/><polygon points="12.5,8 12,9 13,9" fill="#000000"/><polygon points="15.5,8 15,9 16,9" fill="#000000"/><polygon points="11.5,9 11,10 12,10" fill="#000000"/><polygon points="13.5,9 13,10 14,10" fill="#000000"/><polygon points="15.5,9 15,10 16,10" fill="#000000"/><polygon points="11.5,10 11,11 12,11" fill="#000000"/><polygon points="12.5,10 12,11 13,11" fill="#000000"/><polygon points="13.5,10 13,11 14,11" fill="#000000"/><polygon points="15.5,10 15,11 16,11" fill="#000000"/><polygon points="8.5,11 8,12 9,12" fill="#000000"/><polygon points="9.5,11 9,12 10,12" fill="#000000"/><polygon points="15.5,11 15,12 16,12" fill="#000000"/><polygon points="17.5,11 17,12 18,12" fill="#000000"/><polygon points="19.5,11 19,12 20,12" fill="#000000"/><polygon points="21.5,11 21,12 22,12" fill="#000000"/><polygon points="23.5,11 23,12 24,12" fill="#000000"/><polygon points="3.5,12 3,13 4,13" fill="#000000"/><polygon points="4.5,12 4,13 5,13" fill="#000000"/><polygon points="5.5,12 5,13 6,13" fill="#000000"/><polygon points="6.5,12 6,13 7,13" fill="#000000"/><polygon points="11.5,12 11,13 12,13" fill="#000000"/><polygon points="12.5,12 12,13 13,13" fill="#000000"/><polygon points="13.5,12 13,13 14,13" fill="#000000"/><polygon points="14.5,12 14,13 15,13" fill="#000000"/><polygon points="16.5,12 16,13 17,13" fill="#000000"/><polygon points="17.5,12 17,13 18,13" fill="#000000"/><polygon points="19.5,12 19,13 20,13" fill="#000000"/><polygon points="20.5,12 20,13 21,13" fill="#000000"/><polygon points="21.5,12 21,13 22,13" fill="#000000"/><polygon points="5.5,13 5,14 6,14" fill="#000000"/><polygon points="6.5,13 6,14 7,14" fill="#000000"/><polygon points="7.5,13 7,14 8,14" fill="#000000"/><polygon points="9.5,13 9,14 10,14" fill="#000000"/><polygon points="11.5,13 11,14 12,14" fill="#000000"/><polygon points="12.5,13 12,14 13,14" fill="#000000"/><polygon points="14.5,13 14,14 15,14" fill="#000000"/><polygon points="15.5,13 15,14 16,14" fill="#000000"/><polygon points="16.5,13 16,14 17,14" fill="#000000"/><polygon points="19.5,13 19,14 20,14" fill="#000000"/><polygon points="20.5,13 20,14 21,14" fill="#000000"/><polygon points="21.5,13 21,14 22,14" fill="#000000"/><polygon points="22.5,13 22,14 23,14" fill="#000000"/><polygon points="6.5,14 6,15 7,15" fill="#000000"/><polygon points="8.5,14 8,15 9,15" fill="#000000"/><polygon points="14.5,14 14,15 15,15" fill="#000000"/><polygon points="19.5,14 19,15 20,15" fill="#000000"/><polygon points="20.5,14 20,15 21,15" fill="#000000"/><polygon points="21.5,14 21,15 22,15" fill="#000000"/><polygon points="5.5,15 5,16 6,16" fill="#000000"/><polygon points="9.5,15 9,16 10,16" fill="#000000"/><polygon points="11.5,15 11,16 12,16" fill="#000000"/><polygon points="13.5,15 13,16 14,16" fill="#000000"/><polygon points="14.5,15 14,16 15,16" fill="#000000"/><polygon points="16.5,15 16,16 17,16" fill="#000000"/><polygon points="17.5,15 17,16 18,16" fill="#000000"/><polygon points="23.5,15 23,16 24,16" fill="#000000"/><polygon points="11.5,16 11,17 12,17" fill="#000000"/><polygon points="13.5,16 13,17 14,17" fill="#000000"/><polygon points="17.5,16 17,17 18,17" fill="#000000"/><polygon points="18.5,16 18,17 19,17" fill="#000000"/><polygon points="21.5,16 21,17 22,17" fill="#000000"/><polygon points="22.5,16 22,17 23,17" fill="#000000"/><polygon points="13.5,17 13,18 14,18" fill="#000000"/><polygon points="17.5,17 17,18 18,18" fill="#000000"/><polygon points="18.5,17 18,18 19,18" fill="#000000"/><polygon points="20.5,17 20,18 21,18" fill="#000000"/><polygon points="22.5,17 22,18 23,18" fill="#000000"/><polygon points="11.5,18 11,19 12,19" fill="#000000"/><polygon points="12.5,18 12,19 13,19" fill="#000000"/><polygon points="14.5,18 14,19 15,19" fill="#000000"/><polygon points="15.5,18 15,19 16,19" fill="#000000"/><polygon points="16.5,18 16,19 17,19" fill="#000000"/><polygon points="18.5,18 18,19 19,19" fill="#000000"/><polygon points="19.5,18 19,19 20,19" fill="#000000"/><polygon points="20.5,18 20,19 21,19" fill="#000000"/><polygon points="21.5,18 21,19 22,19" fill="#000000"/><polygon points="23.5,18 23,19 24,19" fill="#000000"/><polygon points="13.5,19 13,20 14,20" fill="#000000"/><polygon points="16.5,19 16,20 17,20" fill="#000000"/><polygon points="18.5,19 18,20 19,20" fill="#000000"/><polygon points="20.5,19 20,20 21,20" fill="#000000"/><polygon points="22.5,19 22,20 23,20" fill="#000000"/><polygon points="12.5,20 12,21 13,21" fill="#000000"/><polygon points="13.5,20 13,21 14,21" fill="#000000"/><polygon points="14.5,20 14,21 15,21" fill="#000000"/><polygon points="16.5,20 16,21 17,21" fill="#000000"/><polygon points="17.5,20 17,21 18,21" fill="#000000"/><polygon points="20.5,20 20,21 21,21" fill="#000000"/><polygon points="21.5,20 21,21 22,21" fill="#000000"/><polygon points="12.5,21 12,22 13,22" fill="#000000"/><polygon points="15.5,21 15,22 16,22" fill="#000000"/><polygon points="16.5,21 16,22 17,22" fill="#000000"/><polygon points="20.5,21 20,22 21,22" fill="#000000"/><polygon points="21.5,21 21,22 22,22" fill="#000000"/><polygon points="22.5,21 22,22 23,22" fill="#000000"/><polygon points="23.5,21 23,22 24,22" fill="#000000"/><polygon points="12.5,22 12,23 13,23" fill="#000000"/><polygon points="13.5,22 13,23 14,23" fill="#000000"/><polygon points="15.5,22 15,23 16,23" fill="#000000"/><polygon points="16.5,22 16,23 17,23" fill="#000000"/><polygon points="17.5,22 17,23 18,23" fill="#000000"/><polygon points="19.5,22 19,23 20,23" fill="#000000"/><polygon points="21.5,22 21,23 22,23" fill="#000000"/><polygon points="12.5,23 12,24 13,24" fill="#000000"/><polygon points="14.5,23 14,24 15,24" fill="#000000"/><polygon points="15.5,23 15,24 16,24" fill="#000000"/><polygon points="17.5,23 17,24 18,24" fill="#000000"/><polygon points="19.5,23 19,24 20,24" fill="#000000"/><polygon points="21.5,23 21,24 22,24" fill="#000000"/><polygon points="22.5,23 22,24 23,24" fill="#000000"/><path d="M5 3H8A2 2 0 0 1 10 5V8A2 2 0 0 1 8 10H5A2 2 0 0 1 3 8V5A2 2 0 0 1 5 3ZM5 4H8A1 1 0 0 1 9 5V8A1 1 0 0 1 8 9H5A1 1 0 0 1 4 8V5A1 1 0 0 1 5 4ZM19 3H22A2 2 0 0 1 24 5V8A2 2 0 0 1 22 10H19A2 2 0 0 1 17 8V5A2 2 0 0 1 19 3ZM19 4H22A1 1 0 0 1 23 5V8A1 1 0 0 1 22 9H19A1 1 0 0 1 18 8V5A1 1 0 0 1 19 4ZM5 17H8A2 2 0 0 1 10 19V22A2 2 0 0 1 8 24H5A2 2 0 0 1 3 22V19A2 2 0 0 1 5 17ZM5 18H8A1 1 0 0 1 9 19V22A1 1 0 0 1 8 23H5A1 1 0 0 1 4 22V19A1 1 0 0 1 5 18ZM5 3H8A2 2 0 0 1 10 5V8A2 2 0 0 1 8 10H5A2 2 0 0 1 3 8V5A2 2 0 0 1 5 3ZM5 4H8A1 1 0 0 1 9 5V8A1 1 0 0 1 8 9H5A1 1 0 0 1 4 8V5A1 1 0 0 1 5 4ZM19 3H22A2 2 0 0 1 24 5V8A2 2 0 0 1 22 10H19A2 2 0 0 1 17 8V5A2 2 0 0 1 19 3ZM19 4H22A1 1 0 0 1 23 5V8A1 1 0 0 1 22 9H19A1 1 0 0 1 18 8V5A1 1 0 0 1 19 4ZM5 17H8A2 2 0 0 1 10 19V22A2 2 0 0 1 8 24H5A2 2 0 0 1 3 22V19A2 2 0 0 1 5 17ZM5 18H8A1 1 0 0 1 9 19V22A1 1 0 0 1 8 23H5A1 1 0 0 1 4 22V19A1 1 0 0 1 5 18ZM5 3H8A2 2 0 0 1 10 5V8A2 2 0 0 1 8 10H5A2 2 0 0 1 3 8V5A2 2 0 0 1 5 3ZM5 4H8A1 1 0 0 1 9 5V8A1 1 0 0 1 8 9H5A1 1 0 0 1 4 8V5A1 1 0 0 1 5 4ZM19 3H22A2 2 0 0 1 24 5V8A2 2 0 0 1 22 10H19A2 2 0 0 1 17 8V5A2 2 0 0 1 19 3ZM19 4H22A1 1 0 0 1 23 5V8A1 1 0 0 1 22 9H19A1 1 0 0 1 18 8V5A1 1 0 0 1 19 4ZM5 17H8A2 2 0 0 1 10 19V22A2 2 0 0 1 8 24H5A2 2 0 0 1 3 22V19A2 2 0 0 1 5 17ZM5 18H8A1 1 0 0 1 9 19V22A1 1 0 0 1 8 23H5A1 1 0 0 1 4 22V19A1 1 0 0 1 5 18Z" fill="#000000" fill-rule="evenodd" clip-rule="evenodd"/><path d="M6.5 5H8L8 5V6.5A1.5 1.5 0 0 1 6.5 8H5L5 8V6.5A1.5 1.5 0 0 1 6.5 5ZM20.5 5H22L22 5V6.5A1.5 1.5 0 0 1 20.5 8H19L19 8V6.5A1.5 1.5 0 0 1 20.5 5ZM6.5 19H8L8 19V20.5A1.5 1.5 0 0 1 6.5 22H5L5 22V20.5A1.5 1.5 0 0 1 6.5 19Z" fill="#000000"/></svg>
